       <svg width="100" viewBox="0 0 438 290" fill="none" xmlns="http://www.w3.org/2000/svg">
                        <path
                            d="M354.933 4.26641C353.733 5.46641 353.333 13.8664 353.333 36.9331C353.333 53.9997 352.8 67.9997 352.133 67.9997C351.466 67.9997 348.533 67.0664 345.466 65.9997C309.2 53.1997 250 50.9331 207.333 60.7997C177.2 67.5997 137.2 85.3331 114.4 101.733C67.3331 135.466 34.2664 179.466 16.2664 232C8.79973 253.733 8.26639 259.2 15.1997 242.4C39.0664 184.666 81.7331 138.266 137.333 109.466C184.933 84.9331 237.6 75.4664 290.533 81.9997C308 84.1331 331.333 89.1997 339.333 92.5331L344.133 94.5331L341.733 98.2664C337.866 104.533 312.266 138.133 310 140C307.6 142 307.333 148.133 309.6 150.4C313.866 154.666 318.533 152.266 351.733 128.4C369.866 115.466 385.6 104.8 386.666 104.8C387.733 104.933 395.066 106.266 402.8 107.866C418 110.933 431.466 111.733 433.6 109.6C436 107.2 427.866 101.466 409.466 92.2664L391.6 83.3331L385.066 62.6664C381.333 51.3331 376.4 35.3331 373.866 27.3331C367.333 6.79974 365.6 3.46641 360.666 2.93308C358.4 2.66641 355.866 3.33308 354.933 4.26641Z"
                            fill="#EEEEEE" fill-opacity="0.933333" />
                        <path
                            d="M230.665 107.066C230.265 107.333 225.198 108 219.465 108.533C213.598 109.066 208.398 109.733 207.865 110.133C207.332 110.4 203.998 111.333 200.398 112C184.265 115.2 181.198 116.133 182.132 117.6C182.665 118.4 181.998 118.666 180.398 118.133C178.798 117.6 174.798 118.8 169.865 121.333C165.598 123.466 161.198 125.333 160.398 125.333C159.465 125.333 158.665 125.866 158.665 126.4C158.665 126.933 157.465 127.466 155.998 127.6C154.398 127.733 151.065 129.2 148.265 130.933C145.598 132.666 143.065 134 142.665 134.133C139.865 134.666 137.465 136.533 138.265 137.733C138.665 138.533 138.398 138.666 137.465 138.133C136.532 137.6 132.532 139.733 127.732 143.2C123.198 146.533 120.132 149.333 120.932 149.333C123.065 149.333 130.665 144.8 130.665 143.6C130.665 142.933 131.198 142.8 131.865 143.2C133.465 144.133 145.465 138 144.398 136.8C143.865 136.266 144.398 136.266 145.598 136.666C146.665 137.066 148.532 136.666 149.465 135.6C150.532 134.666 152.132 134 153.065 134.4C153.865 134.666 154.665 134.266 154.665 133.466C154.665 132.666 155.465 132.133 156.398 132.266C157.198 132.533 157.865 131.866 157.598 130.8C157.198 129.2 157.598 129.2 159.198 130.666C160.932 132 161.732 132 163.332 130.666C164.398 129.733 165.332 129.333 165.332 129.866C165.332 130.266 167.598 129.733 170.398 128.533C175.465 126.533 179.732 125.733 187.065 125.466C189.198 125.466 190.532 124.933 190.265 124.266C189.465 123.066 205.598 122.133 227.998 122.133C246.132 122.266 256.665 123.066 265.598 125.2C268.265 125.866 270.798 126 271.198 125.6C271.598 125.333 272.665 125.6 273.598 126.4C278.132 130.133 288.665 127.333 285.332 123.333C284.265 122 284.265 121.333 285.465 120.533C286.532 120 286.665 120.133 286.132 121.066C285.598 122 285.865 122.666 286.665 122.666C287.465 122.666 288.798 121.2 289.598 119.333C290.398 117.466 291.598 116 292.265 116C292.798 116 293.332 115.2 293.332 114.266C293.332 111.6 270.932 108 249.465 107.066C239.465 106.666 231.065 106.666 230.665 107.066Z"
                            fill="#EEEEEE" fill-opacity="0.933333" />
                        <path
                            d="M166.666 165.867C165.999 167.6 165.066 171.333 164.666 174.133C164.132 177.067 162.266 186.933 160.399 196.267C158.532 205.6 157.332 214.267 157.866 215.333C158.932 218.133 166.532 218 167.599 215.067C167.999 213.867 169.066 209.2 169.866 204.8L171.332 196.667L184.399 196.267C191.466 196.133 197.332 195.467 197.332 194.933C197.332 194.4 197.732 192.667 198.132 190.933C198.932 188 198.799 188 185.999 188C173.199 188 173.066 188 173.732 184.933C174.132 183.333 174.932 179.733 175.332 177.067C176.532 170.933 177.866 170.533 192.532 171.2C202.666 171.733 204.132 171.467 205.332 169.333C208.799 162.933 207.999 162.667 187.332 162.667C168.132 162.667 167.866 162.667 166.666 165.867Z"
                            fill="#EEEEEE" fill-opacity="0.933333" />
                        <path
                            d="M216.267 164.266C214.667 166.4 205.067 214.533 206.133 216.133C206.533 216.8 214.933 217.333 224.8 217.333H242.667L244 213.866C244.8 212 245.067 209.866 244.533 209.2C244.133 208.533 238.133 208 231.2 208C221.6 208 218.667 207.6 218.667 206.266C218.667 205.2 220.533 195.466 222.667 184.666C224.933 173.866 226.667 164.4 226.667 163.733C226.667 162 217.867 162.533 216.267 164.266Z"
                            fill="#EEEEEE" fill-opacity="0.933333" />
                        <path
                            d="M256 164.267C256 165.2 258.8 172.8 262.133 181.333L268.4 196.667L266.933 205.867C266.133 211.067 265.733 215.733 266.133 216.267C267.2 218 274.133 217.467 275.733 215.6C276.4 214.8 277.467 210.933 278 207.333C279.2 198.533 279.6 197.867 294.133 179.867C301.067 171.2 306.667 163.867 306.667 163.467C306.667 161.867 297.467 162.667 295.733 164.4C294.8 165.467 290.4 170.8 286 176.4C281.6 182.133 277.333 186.667 276.533 186.667C275.733 186.667 273.067 181.6 270.667 175.467C268.267 169.2 265.467 163.867 264.4 163.467C260.933 162.133 256 162.667 256 164.267Z"
                            fill="#EEEEEE" fill-opacity="0.933333" />
                        <path
                            d="M92.6671 246.533C92.2671 247.333 90.6671 247.6 89.2004 247.333C87.2004 246.933 86.6671 247.333 87.2004 248.8C87.6004 249.866 87.4671 250.4 86.6671 250C85.0671 249.066 82.2671 254.266 83.4671 256.133C84.0004 257.066 85.4671 256.4 87.4671 254.533L90.5337 251.6L91.4671 257.2C92.0004 260.133 92.8004 262.666 93.3337 262.666C94.9337 262.666 94.0004 268.666 92.1337 269.866C91.0671 270.533 88.0004 271.2 85.3337 271.333C80.6671 271.733 80.2671 271.466 79.7337 268C79.4671 265.866 79.6004 264.4 80.1337 264.8C81.6004 265.733 84.4004 260.133 83.4671 257.866C83.0671 256.8 82.1337 256 81.3337 256C80.5337 256 80.1337 256.533 80.5337 257.2C80.9337 257.866 80.4004 258.666 79.3337 259.2C78.2671 259.6 77.3337 260.533 77.3337 261.333C77.3337 262.133 75.3337 265.6 72.8004 269.066C68.9337 274.666 68.5337 275.733 70.4004 276.8C72.1337 278 72.1337 278.4 70.6671 279.333C69.4671 280 69.2004 279.866 69.8671 278.933C71.3337 276.533 68.5337 277.066 66.1337 279.466C64.9337 280.533 64.2671 282.133 64.6671 282.8C65.6004 284.266 69.3337 284.4 69.3337 282.933C69.3337 282.4 71.0671 280 73.2004 277.6C77.4671 272.933 76.4004 273.066 95.3337 274.933C96.1337 275.066 96.6671 276.666 96.6671 278.533C96.6671 281.2 97.4671 282.133 99.7337 282.4C102.667 282.8 102.8 282.533 101.867 277.733C101.334 274.933 100.4 271.466 99.6004 270.133C98.9337 268.666 98.1337 264.933 97.8671 261.733C97.6004 258.533 96.9337 255.2 96.4004 254.266C95.3337 252.666 94.6671 249.866 94.4004 246.933C94.1337 245.066 93.7337 244.933 92.6671 246.533Z"
                            fill="#EEEEEE" fill-opacity="0.933333" />
                        <path
                            d="M119.465 248.533C114.932 250.8 113.865 252.133 113.599 255.733C113.199 259.333 113.999 260.933 116.932 263.466C121.199 267.2 125.732 268.666 128.132 267.2C129.065 266.666 129.332 266.8 128.932 267.6C128.399 268.4 128.932 269.466 129.999 269.866C131.332 270.266 131.999 272 131.732 274.533L131.465 278.533L120.265 278.133C113.999 278 108.799 278.4 108.399 279.066C107.999 279.866 108.265 280 109.065 279.466C109.865 279.066 111.065 279.6 111.732 280.8C113.065 283.2 121.065 284.533 127.465 283.333C133.199 282.266 138.665 277.333 138.665 273.2C138.665 268.666 133.199 263.733 127.865 263.333C125.465 263.2 123.199 262.4 122.932 261.466C122.665 260.666 121.865 260.266 121.199 260.8C120.132 261.333 119.732 259.6 120.132 256.533C120.132 256 119.465 255.066 118.399 254.533C117.199 253.733 117.465 253.333 119.599 253.333C121.199 253.333 122.932 252.666 123.332 252C124.399 250.266 132.132 250.266 136.399 251.866C139.065 252.933 139.999 252.666 140.532 251.066C141.865 247.733 139.865 246.666 132.132 246.266C126.932 245.866 123.465 246.533 119.465 248.533Z"
                            fill="#EEEEEE" fill-opacity="0.933333" />
                        <path
                            d="M151.335 248.4C145.601 275.2 144.935 282.934 148.401 283.467C149.601 283.6 150.668 283.6 150.668 283.6C150.668 283.467 151.201 281.334 151.868 278.934C152.801 275.734 152.801 274.8 151.601 275.6C150.668 276.134 150.668 275.6 151.735 274.267C152.801 273.067 153.068 271.334 152.535 270.534C152.001 269.6 152.135 269.334 152.935 269.734C153.735 270.267 154.668 269.734 155.201 268.667C155.735 267.2 158.001 266.8 164.001 266.8C168.935 266.934 172.935 266.267 174.268 265.2C176.135 263.6 176.401 263.6 175.335 265.2C174.801 266.267 174.135 269.2 174.001 271.867C173.868 274.534 173.335 278 172.801 279.6C172.268 281.334 172.535 282.8 173.468 283.467C174.535 284.134 174.668 283.867 174.001 282.667C173.335 281.467 173.735 281.334 175.868 282C178.001 282.667 178.668 282.267 178.801 280.4C178.801 279.067 179.201 276.8 179.601 275.334C179.868 273.867 180.268 270.8 180.401 268.4C180.535 266.134 181.068 264.534 181.601 264.8C182.668 265.467 183.335 259.467 182.935 254.267C182.801 253.067 183.335 252 184.001 252C186.268 252 185.468 247.067 183.068 246.134C180.001 244.934 178.668 246.667 178.268 253.067C178.135 256.134 177.468 258.667 176.801 258.667C176.268 258.667 176.001 259.467 176.401 260.267C176.801 261.6 174.268 262 166.001 262C159.868 262 155.201 261.6 155.335 261.2C155.601 260.8 156.135 259.067 156.535 257.2C156.801 255.467 157.468 252.4 158.001 250.267C158.535 248.267 158.401 246.667 157.868 246.534C157.201 246.534 155.601 246.267 154.268 246C152.801 245.734 151.735 246.534 151.335 248.4Z"
                            fill="#EEEEEE" fill-opacity="0.933333" />
                        <path
                            d="M203.334 247.6C198.267 250.133 192.134 257.2 191.734 260.667C191.067 269.467 191.334 272 192.667 271.467C193.601 271.2 194.267 271.733 194.267 272.8C194.267 273.733 193.601 274.267 192.934 273.733C192.267 273.333 192.401 274.267 193.334 275.867C197.201 283.067 208.401 286 217.734 282C221.867 280.267 222.667 279.2 223.867 273.333C225.734 264.667 225.867 265.067 222.401 265.6C220.134 265.867 219.201 267.2 218.267 271.467C217.201 277.333 214.134 279.6 208.267 279.2C199.734 278.667 196.267 272.933 197.867 262.133C198.534 257.6 199.601 256.133 203.334 254.133C205.867 252.8 207.601 251.2 207.334 250.667C207.067 250.133 209.867 250.267 213.601 250.8C217.334 251.467 220.934 251.6 221.601 251.2C222.134 250.8 222.667 251.2 222.667 251.867C222.667 253.733 226.267 253.733 227.467 251.867C228.667 249.867 226.801 248.4 222.001 247.2C214.401 245.467 207.201 245.6 203.334 247.6Z"
                            fill="#EEEEEE" fill-opacity="0.933333" />
                        <path
                            d="M283.731 247.2C280.665 248.267 279.998 249.467 279.331 255.2C278.798 258.933 277.998 263.2 277.731 264.667C277.331 266.133 276.798 268.933 276.665 271.067C276.531 273.067 275.998 275.067 275.598 275.6C273.465 277.6 274.798 282.4 277.731 283.2C281.731 284.267 293.998 284.267 295.065 283.2C295.598 282.667 297.731 282.133 299.998 282C304.398 281.6 308.398 279.067 307.198 277.2C306.798 276.533 307.065 276 307.598 276C308.265 276 308.931 274.267 309.065 272.133C309.331 269.333 308.531 267.6 306.531 266.267C304.798 264.933 304.265 264 305.198 263.333C305.998 262.933 306.265 261.867 305.865 261.067C305.331 260.267 305.598 260 306.398 260.533C308.931 262.133 311.998 256.133 310.531 252.133C308.798 247.6 307.865 247.2 299.731 246.8C295.865 246.667 292.398 246.267 291.865 245.867C291.331 245.6 290.531 246.133 290.265 246.933C289.731 248.133 289.198 248.267 288.398 247.2C287.731 246.267 286.131 246.267 283.731 247.2ZM303.198 251.067C303.998 250.667 304.265 250.667 303.731 251.333C303.198 251.867 303.331 253.333 303.998 254.667C305.598 257.733 301.998 261.067 296.665 261.333C287.465 262 285.598 261.467 285.065 258C284.665 256.267 284.931 255.067 285.465 255.467C286.131 255.867 286.665 254.933 286.665 253.467C286.665 250.4 291.598 249.333 297.865 250.933C299.998 251.467 302.398 251.6 303.198 251.067ZM308.531 250.4C308.931 251.067 308.398 251.6 307.331 251.6C306.265 251.6 305.731 251.067 306.131 250.4C306.531 249.867 307.065 249.333 307.331 249.333C307.598 249.333 308.131 249.867 308.531 250.4ZM302.398 272C302.665 276.667 302.398 277.067 298.531 277.867C293.331 278.8 286.265 278.933 283.731 278C281.465 277.067 282.131 269.2 284.531 267.733C285.331 267.2 289.598 266.8 294.131 266.933L302.131 267.2L302.398 272Z"
                            fill="#EEEEEE" fill-opacity="0.933333" />
                        <path
                            d="M365.334 246.8C365.334 247.334 364.401 247.6 363.201 247.467C362.001 247.467 360.668 248.134 360.268 249.2C359.868 250.267 360.268 250.667 361.201 250.134C362.001 249.6 362.668 249.734 362.668 250.267C362.668 250.934 364.801 251.2 367.334 250.934C372.934 250.267 372.801 249.6 369.334 267.867C367.868 275.467 366.934 282 367.334 282.4C369.468 284.534 372.001 283.334 373.201 279.6C374.801 274.534 377.601 259.334 377.868 254.4C377.868 252.534 378.268 250.934 378.668 250.934C385.868 251.467 392.001 250.4 392.001 248.667C392.001 247.2 390.401 246.667 385.734 246.534C382.134 246.4 376.134 246.267 372.401 246.267C368.534 246.134 365.334 246.4 365.334 246.8Z"
                            fill="#EEEEEE" fill-opacity="0.933333" />
                        <path
                            d="M247.065 252.267C245.199 255.467 243.599 258.8 243.599 259.6C243.599 260.533 243.199 261.067 242.932 260.667C242.532 260.267 240.532 262.533 238.532 265.6C235.732 269.867 235.199 271.6 236.265 272.933C237.332 274.267 237.199 274.533 235.465 273.867C233.332 273.067 232.399 275.2 234.399 276.4C234.932 276.667 234.665 276.667 233.732 276.533C231.999 276.133 230.132 278.133 228.932 281.467C227.599 285.467 233.199 283.467 236.399 278.8C239.332 274.533 239.865 274.267 247.465 274.267C252.932 274.267 256.665 274.933 258.799 276.533C260.532 277.733 261.865 279.067 261.732 279.333C260.799 281.067 261.599 282.4 263.999 283.067C267.332 283.867 267.465 281.867 264.532 270.8C263.465 266.267 262.265 261.6 261.999 260.267C261.732 258.933 260.799 255.333 259.865 252.267C258.399 247.467 257.732 246.667 254.532 246.667C251.465 246.667 249.999 247.867 247.065 252.267ZM256.665 261.867C257.599 265.2 257.732 268.667 257.199 269.467C256.132 271.333 246.799 271.333 244.932 269.467C243.599 268.133 246.932 259.467 249.465 258C250.399 257.333 250.265 256.4 249.199 255.2C247.865 253.6 247.999 253.467 249.999 254.133C251.865 254.933 252.132 254.667 251.332 253.2C250.665 252.133 251.332 252.267 252.799 253.6C254.132 254.933 255.865 258.667 256.665 261.867Z"
                            fill="#EEEEEE" fill-opacity="0.933333" />
                        <path
                            d="M332.533 250C331.467 251.733 330.933 254 331.467 254.933C332 255.867 332 256.267 331.333 255.733C330.4 254.8 326.667 257.6 326.667 259.2C326.667 259.6 325.2 262.133 323.333 264.8C321.467 267.467 320.4 270.133 320.8 270.8C321.2 271.467 320.933 272 320.133 272C318.8 272 312 281.067 312 282.933C312 283.467 313.333 283.733 315.067 283.467C316.8 283.2 317.867 282.133 317.867 280.8C317.733 279.6 318.133 279.067 318.8 279.333C319.333 279.733 320.4 278.933 321.2 277.733C321.867 276.4 324.133 275.2 326.267 275.2C333.2 274.8 333.467 274.667 332.533 272.933C331.733 271.733 331.867 271.733 333.467 272.933C334.667 273.867 337.733 274.8 340.267 274.933C343.6 275.2 344.8 275.867 344.4 277.333C343.733 280 347.2 284.667 349.067 283.467C351.733 281.867 348.533 265.867 344.533 261.2C343.467 260 343.2 258.667 343.867 257.867C345.467 256.4 344.133 249.067 342.533 250.133C341.867 250.533 341.733 249.867 342.133 248.8C343.6 245.067 335.067 246.133 332.533 250ZM340.267 259.6C339.867 261.6 340.133 262.8 340.933 262.267C341.6 261.867 342 262.8 341.867 264.4C341.733 266 341.467 268.133 341.467 268.933C341.333 270.8 332.667 271.333 328.8 269.867C326.933 269.2 327.067 268.533 329.467 265.2C330.933 262.933 331.867 260.267 331.467 259.2C331.067 258.133 331.2 257.467 331.867 257.867C332.4 258.267 334 257.467 335.333 256C338.4 252.533 341.2 254.667 340.267 259.6ZM326.667 265.867C326.667 266.133 325.733 266.8 324.533 267.2C323.467 267.6 322.933 267.467 323.333 266.667C324.133 265.333 326.667 264.8 326.667 265.867Z"
                            fill="#EEEEEE" fill-opacity="0.933333" />
                    </svg>